<svg xmlns="http://www.w3.org/2000/svg" viewBox="0 0 1200 800">
  <defs>
    <linearGradient id="sky" x1="0" x2="1" y1="0" y2="1">
      <stop stop-color="#e8f8ef"/>
      <stop offset="1" stop-color="#b9e7c9"/>
    </linearGradient>
    <linearGradient id="field" x1="0" x2="1" y1="0" y2="1">
      <stop stop-color="#0b7f55"/>
      <stop offset="1" stop-color="#c8d95a"/>
    </linearGradient>
  </defs>
  <rect width="1200" height="800" fill="url(#sky)"/>
  <circle cx="1000" cy="150" r="96" fill="#f7d66b" opacity=".9"/>
  <path d="M0 500c160-70 290-52 430-15 170 45 290 35 430-30 120-55 230-62 340-26v371H0z" fill="url(#field)"/>
  <path d="M0 610c210-66 410-72 620-18s400 38 580-34v242H0z" fill="#065f46" opacity=".38"/>
  <g stroke="#f5f7a1" stroke-width="6" stroke-linecap="round" opacity=".7">
    <path d="M115 570c30-55 42-88 38-154"/>
    <path d="M165 585c22-72 52-112 112-148"/>
    <path d="M760 525c38-72 58-116 50-188"/>
    <path d="M810 548c44-80 82-120 154-154"/>
    <path d="M485 585c16-60 38-96 92-130"/>
  </g>
</svg>
